<svg width="30" height="30" viewBox="0 0 30 30" fill="none" xmlns="http://www.w3.org/2000/svg">
<path d="M17.3438 27.5H12.6563C12.3438 27.5 12.0729 27.3958 11.8438 27.1875C11.6146 26.9792 11.4792 26.7188 11.4375 26.4063L11.0625 23.5C10.7917 23.3958 10.5367 23.2708 10.2975 23.125C10.0575 22.9792 9.82292 22.8229 9.59375 22.6563L6.875 23.7813C6.58334 23.8854 6.29167 23.8958 6 23.8125C5.70834 23.7292 5.47917 23.5521 5.3125 23.2813L3 19.25C2.83334 18.9792 2.78125 18.6875 2.84375 18.375C2.90625 18.0625 3.0625 17.8125 3.3125 17.625L5.65625 15.8438C5.63542 15.6979 5.625 15.5571 5.625 15.4213V14.5775C5.625 14.4425 5.63542 14.3021 5.65625 14.1563L3.3125 12.375C3.0625 12.1875 2.90625 11.9375 2.84375 11.625C2.78125 11.3125 2.83334 11.0208 3 10.75L5.3125 6.71875C5.45834 6.42708 5.68209 6.24458 5.98375 6.17125C6.28625 6.09875 6.58334 6.11458 6.875 6.21875L9.59375 7.34375C9.82292 7.17708 10.0625 7.02083 10.3125 6.875C10.5625 6.72917 10.8125 6.60417 11.0625 6.5L11.4375 3.59375C11.4792 3.28125 11.6146 3.02083 11.8438 2.8125C12.0729 2.60417 12.3438 2.5 12.6563 2.5H17.3438C17.6563 2.5 17.9271 2.60417 18.1563 2.8125C18.3854 3.02083 18.5208 3.28125 18.5625 3.59375L18.9375 6.5C19.2083 6.60417 19.4638 6.72917 19.7038 6.875C19.9429 7.02083 20.1771 7.17708 20.4063 7.34375L23.125 6.21875C23.4167 6.11458 23.7083 6.10417 24 6.1875C24.2917 6.27083 24.5208 6.44792 24.6875 6.71875L27 10.75C27.1667 11.0208 27.2188 11.3125 27.1563 11.625C27.0938 11.9375 26.9375 12.1875 26.6875 12.375L24.3438 14.1563C24.3646 14.3021 24.375 14.4425 24.375 14.5775V15.4213C24.375 15.5571 24.3542 15.6979 24.3125 15.8438L26.6563 17.625C26.9063 17.8125 27.0625 18.0625 27.125 18.375C27.1875 18.6875 27.1354 18.9792 26.9688 19.25L24.6563 23.25C24.4896 23.5208 24.2554 23.7033 23.9538 23.7975C23.6513 23.8908 23.3542 23.8854 23.0625 23.7813L20.4063 22.6563C20.1771 22.8229 19.9375 22.9792 19.6875 23.125C19.4375 23.2708 19.1875 23.3958 18.9375 23.5L18.5625 26.4063C18.5208 26.7188 18.3854 26.9792 18.1563 27.1875C17.9271 27.3958 17.6563 27.5 17.3438 27.5ZM15.0625 19.375C16.2708 19.375 17.3021 18.9479 18.1563 18.0938C19.0104 17.2396 19.4375 16.2083 19.4375 15C19.4375 13.7917 19.0104 12.7604 18.1563 11.9062C17.3021 11.0521 16.2708 10.625 15.0625 10.625C13.8333 10.625 12.7967 11.0521 11.9525 11.9062C11.1092 12.7604 10.6875 13.7917 10.6875 15C10.6875 16.2083 11.1092 17.2396 11.9525 18.0938C12.7967 18.9479 13.8333 19.375 15.0625 19.375ZM15.0625 16.875C14.5417 16.875 14.0992 16.6925 13.735 16.3275C13.37 15.9633 13.1875 15.5208 13.1875 15C13.1875 14.4792 13.37 14.0367 13.735 13.6725C14.0992 13.3075 14.5417 13.125 15.0625 13.125C15.5833 13.125 16.0263 13.3075 16.3913 13.6725C16.7554 14.0367 16.9375 14.4792 16.9375 15C16.9375 15.5208 16.7554 15.9633 16.3913 16.3275C16.0263 16.6925 15.5833 16.875 15.0625 16.875ZM13.75 25H16.2188L16.6563 21.6875C17.3021 21.5208 17.9013 21.2758 18.4538 20.9525C19.0054 20.63 19.5104 20.2396 19.9688 19.7813L23.0625 21.0625L24.2813 18.9375L21.5938 16.9063C21.6979 16.6146 21.7708 16.3071 21.8125 15.9838C21.8542 15.6613 21.875 15.3333 21.875 15C21.875 14.6667 21.8542 14.3383 21.8125 14.015C21.7708 13.6925 21.6979 13.3854 21.5938 13.0938L24.2813 11.0625L23.0625 8.9375L19.9688 10.25C19.5104 9.77083 19.0054 9.36958 18.4538 9.04625C17.9013 8.72375 17.3021 8.47917 16.6563 8.3125L16.25 5H13.7813L13.3438 8.3125C12.6979 8.47917 12.0992 8.72375 11.5475 9.04625C10.995 9.36958 10.4896 9.76042 10.0313 10.2188L6.9375 8.9375L5.71875 11.0625L8.40625 13.0625C8.30208 13.375 8.22917 13.6875 8.1875 14C8.14584 14.3125 8.125 14.6458 8.125 15C8.125 15.3333 8.14584 15.6563 8.1875 15.9688C8.22917 16.2813 8.30208 16.5938 8.40625 16.9063L5.71875 18.9375L6.9375 21.0625L10.0313 19.75C10.4896 20.2292 10.995 20.63 11.5475 20.9525C12.0992 21.2758 12.6979 21.5208 13.3438 21.6875L13.75 25Z" fill="#959595"/>
</svg>
