<svg width="20" height="24" viewBox="0 0 20 24" fill="none" xmlns="http://www.w3.org/2000/svg">
<g clip-path="url(#clip0_1_272)">
<path d="M19 24H1C0.734784 24 0.48043 23.8946 0.292893 23.7071C0.105357 23.5196 0 23.2652 0 23V1C0 0.734784 0.105357 0.48043 0.292893 0.292893C0.48043 0.105357 0.734784 0 1 0H19C19.2652 0 19.5196 0.105357 19.7071 0.292893C19.8946 0.48043 20 0.734784 20 1V23C20 23.2652 19.8946 23.5196 19.7071 23.7071C19.5196 23.8946 19.2652 24 19 24ZM2 22H18V2H2V22Z" fill="#959595"/>
<path d="M4 6H16V8H4V6Z" fill="#959595"/>
<path d="M4 10H16V12H4V10Z" fill="#959595"/>
<path d="M4 14H16V16H4V14Z" fill="#959595"/>
</g>
<defs>
<clipPath id="clip0_1_272">
<rect width="20" height="24" fill="white"/>
</clipPath>
</defs>
</svg>
