<svg width="24" height="24" viewBox="0 0 24 24" fill="none" xmlns="http://www.w3.org/2000/svg">
<path d="M19.8469 12.4031L20.9906 6.13125C21.0106 6.02353 21.0058 5.91268 20.9765 5.8071C20.9473 5.70152 20.8944 5.60398 20.8219 5.52188C20.7526 5.4371 20.6653 5.36875 20.5665 5.32174C20.4676 5.27473 20.3595 5.25023 20.25 5.25H5.12813L4.66875 2.72813C4.6053 2.38382 4.42341 2.07256 4.15459 1.84827C3.88578 1.62397 3.54697 1.50077 3.19687 1.5H1.5C1.30109 1.5 1.11032 1.57902 0.96967 1.71967C0.829018 1.86032 0.75 2.05109 0.75 2.25C0.75 2.44891 0.829018 2.63968 0.96967 2.78033C1.11032 2.92098 1.30109 3 1.5 3H3.19687L5.76562 17.1562C5.39938 17.4788 5.13033 17.8972 4.98867 18.3642C4.84702 18.8312 4.83838 19.3285 4.96372 19.8002C5.08906 20.2719 5.34342 20.6993 5.69824 21.0344C6.05305 21.3696 6.49426 21.5991 6.97233 21.6974C7.4504 21.7956 7.94639 21.7586 8.4046 21.5905C8.8628 21.4225 9.26508 21.13 9.56626 20.7459C9.86744 20.3619 10.0556 19.9015 10.1096 19.4164C10.1636 18.9314 10.0812 18.4409 9.87188 18H14.8781C14.6344 18.5139 14.5641 19.0931 14.6779 19.6503C14.7918 20.2076 15.0835 20.7129 15.5093 21.09C15.9351 21.4671 16.4718 21.6958 17.0388 21.7415C17.6057 21.7872 18.1722 21.6476 18.6529 21.3436C19.1336 21.0396 19.5026 20.5876 19.7043 20.0558C19.9059 19.524 19.9294 18.941 19.7712 18.3947C19.613 17.8484 19.2816 17.3682 18.8269 17.0265C18.3722 16.6848 17.8188 16.5 17.25 16.5H7.17188L6.75937 14.25H17.6344C18.161 14.2497 18.6709 14.0648 19.0751 13.7273C19.4794 13.3898 19.7525 12.9212 19.8469 12.4031ZM8.625 19.125C8.625 19.3475 8.55902 19.565 8.4354 19.75C8.31179 19.935 8.13609 20.0792 7.93052 20.1644C7.72495 20.2495 7.49875 20.2718 7.28052 20.2284C7.06229 20.185 6.86184 20.0778 6.7045 19.9205C6.54717 19.7632 6.44002 19.5627 6.39662 19.3445C6.35321 19.1262 6.37549 18.9 6.46064 18.6945C6.54578 18.4889 6.68998 18.3132 6.87498 18.1896C7.05999 18.066 7.2775 18 7.5 18C7.79837 18 8.08452 18.1185 8.2955 18.3295C8.50647 18.5405 8.625 18.8266 8.625 19.125ZM18.375 19.125C18.375 19.3475 18.309 19.565 18.1854 19.75C18.0618 19.935 17.8861 20.0792 17.6805 20.1644C17.475 20.2495 17.2488 20.2718 17.0305 20.2284C16.8123 20.185 16.6118 20.0778 16.4545 19.9205C16.2972 19.7632 16.19 19.5627 16.1466 19.3445C16.1032 19.1262 16.1255 18.9 16.2106 18.6945C16.2958 18.4889 16.44 18.3132 16.625 18.1896C16.81 18.066 17.0275 18 17.25 18C17.5484 18 17.8345 18.1185 18.0455 18.3295C18.2565 18.5405 18.375 18.8266 18.375 19.125ZM5.4 6.75H19.35L18.375 12.1312C18.3441 12.3051 18.2529 12.4624 18.1174 12.5756C17.982 12.6888 17.8109 12.7505 17.6344 12.75H6.4875L5.4 6.75Z" fill="#535353"/>
</svg>
